<svg class="ldi-c21wuk" width="50px" height="50px" xmlns="http://www.w3.org/2000/svg" xmlns:xlink="http://www.w3.org/1999/xlink" viewBox="0 0 100 100" preserveAspectRatio="xMidYMid" style="background: rgba(0, 0, 0, 0) none repeat scroll 0% 0%;"><!--?xml version="1.0" encoding="utf-8"?--><!--Generator: Adobe Illustrator 21.0.0, SVG Export Plug-In . SVG Version: 6.00 Build 0)--><svg version="1.1" id="圖層_1" xmlns="http://www.w3.org/2000/svg" xmlns:xlink="http://www.w3.org/1999/xlink" x="0px" y="0px" viewBox="0 0 100 100" style="transform-origin: 50px 50px 0px;" xml:space="preserve"><g style="transform-origin: 50px 50px 0px;"><g style="transform-origin: 50px 50px 0px; transform: scale(0.73);"><g style="transform-origin: 50px 50px 0px; animation-duration: 1s; animation-delay: -1s; animation-direction: normal;" class="ld ld-jump-px"><g><style type="text/css" style="transform-origin: 50px 50px 0px;">.st0{fill:#D1D1D1;} .st1{fill:#454545;} .st2{fill:#464646;} .st3{fill:#FFFFFF;}</style><g style="transform-origin: 50px 50px 0px;"><path class="st0" d="M54.167,8.377c4.437,0,8.048,3.611,8.048,8.048v17.5c0,0.456,0.385,0.841,0.841,0.841h10.097 c3.828,0,5.153,2.201,5.545,3.148c0.392,0.946,1.012,3.44-1.695,6.147L55.691,65.372c-1.517,1.517-3.538,2.351-5.691,2.351 c-2.153,0-4.174-0.835-5.691-2.351L22.998,44.06c-2.707-2.707-2.087-5.2-1.695-6.147c0.392-0.946,1.717-3.148,5.545-3.148h10.097 c0.456,0,0.841-0.385,0.841-0.841v-17.5c0-4.437,3.61-8.048,8.048-8.048L54.167,8.377L54.167,8.377z" fill="rgb(209, 209, 209)" style="fill: rgb(209, 209, 209);"/></g><g style="transform-origin: 50px 50px 0px;"><g><g style="transform-origin: 50px 50px 0px;"><path class="st0" d="M16.347,91.623c-4.878,0-8.847-3.969-8.847-8.847V61.927c0-4.878,3.968-8.847,8.847-8.847 s8.847,3.969,8.847,8.847V73.93h49.613V61.927c0-4.878,3.969-8.847,8.847-8.847c4.878,0,8.847,3.969,8.847,8.847v20.849 c0,4.878-3.968,8.847-8.847,8.847H16.347z" fill="rgb(209, 209, 209)" style="fill: rgb(209, 209, 209);"/></g></g></g><g style="transform-origin: 50px 50px 0px;"><path class="st2" d="M63.055,38.369c-2.444,0-4.445-2-4.445-4.445v-17.5c0-2.444-2-4.444-4.444-4.444h-8.334 c-2.444,0-4.444,2-4.444,4.444v17.5c0,2.444-2,4.445-4.445,4.445H26.847c-2.444,0-3.03,1.414-1.301,3.143l21.311,21.311 c1.729,1.728,4.557,1.728,6.286,0l21.311-21.311c1.728-1.728,1.143-3.143-1.302-3.143H63.055z" fill="#0092ff" style="fill: rgb(0, 146, 255);"/></g><g style="transform-origin: 50px 50px 0px;"><g><g style="transform-origin: 50px 50px 0px;"><path class="st2" d="M83.653,88.02H16.347c-2.895,0-5.243-2.348-5.243-5.243V61.927c0-2.895,2.348-5.243,5.243-5.243 c2.896,0,5.243,2.348,5.243,5.243v15.607H78.41V61.927c0-2.895,2.348-5.243,5.243-5.243c2.895,0,5.243,2.348,5.243,5.243v20.849 C88.896,85.672,86.549,88.02,83.653,88.02z" fill="#0092ff" style="fill: rgb(0, 146, 255);"/></g></g></g><metadata xmlns:d="https://loading.io/stock/" style="transform-origin: 50px 50px 0px;">
<d:name style="transform-origin: 50px 50px 0px;">download</d:name>
<d:tags style="transform-origin: 50px 50px 0px;">save,keep,get,retrieve,input,store,download,map</d:tags>
<d:license style="transform-origin: 50px 50px 0px;">cc0</d:license>
<d:slug style="transform-origin: 50px 50px 0px;">c21wuk</d:slug>
</metadata></g></g></g></g><style type="text/css" style="transform-origin: 50px 50px 0px;">@keyframes ld-jump-px {
  0%, 28%, 48%, 64%, 76%, 86%, 93%, 100% {
    animation-timing-function: ease-out;
  }
  14%, 38%, 56%, 70%, 81%, 90%, 97% {
    animation-timing-function: ease-in;
  }
  0% {
    -webkit-transform: translateY(0px);
    transform: translateY(0px);
  }
  14% {
    -webkit-transform: translateY(-27px);
    transform: translateY(-27px);
  }
  28% {
    -webkit-transform: translateY(0px);
    transform: translateY(0px);
  }
  38% {
    -webkit-transform: translateY(-20px);
    transform: translateY(-20px);
  }
  48% {
    -webkit-transform: translateY(0px);
    transform: translateY(0px);
  }
  56% {
    -webkit-transform: translateY(-16px);
    transform: translateY(-16px);
  }
  64% {
    -webkit-transform: translateY(0px);
    transform: translateY(0px);
  }
  70% {
    -webkit-transform: translateY(-12px);
    transform: translateY(-12px);
  }
  76% {
    -webkit-transform: translateY(0px);
    transform: translateY(0px);
  }
  81% {
    -webkit-transform: translateY(-7.5px);
    transform: translateY(-7.5px);
  }
  86% {
    -webkit-transform: translateY(0px);
    transform: translateY(0px);
  }
  90% {
    -webkit-transform: translateY(-3px);
    transform: translateY(-3px);
  }
  93% {
    -webkit-transform: translateY(0px);
    transform: translateY(0px);
  }
  97% {
    -webkit-transform: translateY(-1.5px);
    transform: translateY(-1.5px);
  }
  100% {
    -webkit-transform: translateY(0px);
    transform: translateY(0px);
  }
}
@-webkit-keyframes ld-jump-px {
  0%, 28%, 48%, 64%, 76%, 86%, 93%, 100% {
    animation-timing-function: ease-out;
  }
  14%, 38%, 56%, 70%, 81%, 90%, 97% {
    animation-timing-function: ease-in;
  }
  0% {
    -webkit-transform: translateY(0px);
    transform: translateY(0px);
  }
  14% {
    -webkit-transform: translateY(-27px);
    transform: translateY(-27px);
  }
  28% {
    -webkit-transform: translateY(0px);
    transform: translateY(0px);
  }
  38% {
    -webkit-transform: translateY(-20px);
    transform: translateY(-20px);
  }
  48% {
    -webkit-transform: translateY(0px);
    transform: translateY(0px);
  }
  56% {
    -webkit-transform: translateY(-16px);
    transform: translateY(-16px);
  }
  64% {
    -webkit-transform: translateY(0px);
    transform: translateY(0px);
  }
  70% {
    -webkit-transform: translateY(-12px);
    transform: translateY(-12px);
  }
  76% {
    -webkit-transform: translateY(0px);
    transform: translateY(0px);
  }
  81% {
    -webkit-transform: translateY(-7.5px);
    transform: translateY(-7.5px);
  }
  86% {
    -webkit-transform: translateY(0px);
    transform: translateY(0px);
  }
  90% {
    -webkit-transform: translateY(-3px);
    transform: translateY(-3px);
  }
  93% {
    -webkit-transform: translateY(0px);
    transform: translateY(0px);
  }
  97% {
    -webkit-transform: translateY(-1.5px);
    transform: translateY(-1.5px);
  }
  100% {
    -webkit-transform: translateY(0px);
    transform: translateY(0px);
  }
}
.ld.ld-jump-px {
  -webkit-animation: ld-jump-px 1.5s ease-in infinite;
  animation: ld-jump-px 1.5s ease-in infinite;
}
</style></svg></svg>