<svg class="ldi-n5sxz8" width="36px" height="36px" xmlns="http://www.w3.org/2000/svg" xmlns:xlink="http://www.w3.org/1999/xlink" viewBox="0 0 100 100" preserveAspectRatio="xMidYMid" style="background: rgba(0, 0, 0, 0) none repeat scroll 0% 0%;"><!--?xml version="1.0" encoding="utf-8"?--><!--Generator: Adobe Illustrator 21.0.0, SVG Export Plug-In . SVG Version: 6.00 Build 0)--><svg version="1.1" id="Layer_1" xmlns="http://www.w3.org/2000/svg" xmlns:xlink="http://www.w3.org/1999/xlink" x="0px" y="0px" viewBox="0 0 100 100" style="transform-origin: 50px 50px 0px;" xml:space="preserve"><g style="transform-origin: 50px 50px 0px;"><g style="transform-origin: 50px 50px 0px; transform: scale(1);"><g style="transform-origin: 50px 50px 0px; animation-duration: 5s; animation-delay: -5s; animation-direction: normal;" class="ld ld-breath"><g><style type="text/css" style="transform-origin: 50px 50px 0px; animation-duration: 1s; animation-delay: -1s; animation-direction: normal;" class="">.st0{fill:#999998;} .st1{fill:#323232;} .st2{fill:#CCCCCB;} .st3{fill:#ACBD81;} .st4{fill:#849B87;}</style><g style="transform-origin: 50px 50px 0px; animation-duration: 1s; animation-delay: -0.923077s; animation-direction: normal;" class=""><path class="st2" d="M74.938,42.252h-21.4V24.571c0-1.075-1.277-1.636-2.07-0.91L23.734,49.09c-0.267,0.245-0.4,0.578-0.4,0.91 c0,0.333,0.134,0.666,0.4,0.91L51.469,76.34c0.792,0.726,2.07,0.164,2.07-0.91V57.748h21.4c0.954,0,1.728-0.774,1.728-1.728V43.98 C76.667,43.026,75.893,42.252,74.938,42.252z M73.111,54.192H53.538h-3.556v3.556v12.405L28.002,50l21.98-20.153v12.406v3.556h3.556 h19.573V54.192z" fill="rgba(80.00000000000001%,80.00000000000001%,79.6078431372549%,0)" style="fill: rgba(204, 204, 203, 0);"/></g><g style="transform-origin: 50px 50px 0px; animation-duration: 1s; animation-delay: -0.846154s; animation-direction: normal;" class=""><polygon class="st0" points="49.983,45.808 49.983,42.252 49.983,29.847 28.002,50 49.983,70.153 49.983,57.748 49.983,54.192 53.538,54.192 73.111,54.192 73.111,45.808 53.538,45.808 " fill="rgb(153, 153, 152)" style="fill: rgb(153, 153, 152);"/></g><g style="transform-origin: 50px 50px 0px; animation-duration: 1s; animation-delay: -0.769231s; animation-direction: normal;" class=""><path class="st1" d="M50,10c-22.091,0-40,17.909-40,40c0,22.091,17.909,40,40,40s40-17.909,40-40C90,27.909,72.091,10,50,10z M76.667,56.02c0,0.954-0.774,1.728-1.728,1.728h-21.4v17.682c0,1.075-1.277,1.636-2.07,0.91L23.734,50.91 c-0.267-0.245-0.4-0.577-0.4-0.91c0-0.333,0.134-0.666,0.4-0.91l27.735-25.429c0.792-0.726,2.07-0.164,2.07,0.91v17.682h21.4 c0.954,0,1.728,0.774,1.728,1.728V56.02z" fill="#0092ff" style="fill: rgb(0, 146, 255);"/></g><metadata xmlns:d="https://loading.io/stock/" style="transform-origin: 50px 50px 0px; animation-duration: 1s; animation-delay: -0.692308s; animation-direction: normal;" class="">
<d:name style="transform-origin: 50px 50px 0px; animation-duration: 1s; animation-delay: -0.615385s; animation-direction: normal;" class="">left</d:name>
<d:tags style="transform-origin: 50px 50px 0px; animation-duration: 1s; animation-delay: -0.538462s; animation-direction: normal;" class="">west,back,undo,previous,direction,way,turn,circle,left,arrow</d:tags>
<d:license style="transform-origin: 50px 50px 0px; animation-duration: 1s; animation-delay: -0.461538s; animation-direction: normal;" class="">cc-by</d:license>
<d:slug style="transform-origin: 50px 50px 0px; animation-duration: 1s; animation-delay: -0.384615s; animation-direction: normal;" class="">n5sxz8</d:slug>
</metadata></g></g></g></g><style type="text/css" style="transform-origin: 50px 50px 0px; animation-duration: 1s; animation-delay: -0.307692s; animation-direction: normal;" class="">@keyframes ld-breath {
  0% {
    -webkit-transform: scale(0.86);
    transform: scale(0.86);
  }
  50% {
    -webkit-transform: scale(1.06);
    transform: scale(1.06);
  }
  100% {
    -webkit-transform: scale(0.86);
    transform: scale(0.86);
  }
}
@-webkit-keyframes ld-breath {
  0% {
    -webkit-transform: scale(0.86);
    transform: scale(0.86);
  }
  50% {
    -webkit-transform: scale(1.06);
    transform: scale(1.06);
  }
  100% {
    -webkit-transform: scale(0.86);
    transform: scale(0.86);
  }
}
.ld.ld-breath {
  -webkit-animation: ld-breath 1s infinite;
  animation: ld-breath 1s infinite;
}
</style></svg></svg>